# xmcd CD database file
#
# Track frame offsets:
#	150
#	16458
#	32171
#	49522
#	64815
#	78848
#	94331
#	108071
#	127208
#	142341
#
# Disc length: 2052 seconds
#
# Revision: 0
# Processed by: cddbd v1.5.2PL0 Copyright (c) Steve Scherf et al.
# Submitted via: CDex 1.82
#
DISCID=8808020a
DTITLE=Emi Meyer - Galaxys Skirt
DYEAR=2013
DGENRE=Jazz
TTITLE0=Galaxys Skirt
TTITLE1=Doin Great
TTITLE2=Black Sheep
TTITLE3=Shine On
TTITLE4=I Cant Get Enough Of You
TTITLE5=Tokyoto
TTITLE6=New York
TTITLE7=Energy
TTITLE8=On The Road
TTITLE9=What Would You Say
EXTD=YEAR: 2013
EXTT0=
EXTT1=
EXTT2=
EXTT3=
EXTT4=
EXTT5=
EXTT6=
EXTT7=
EXTT8=
EXTT9=
PLAYORDER=
